<svg width="32" height="53" viewBox="0 0 32 53" fill="none" xmlns="http://www.w3.org/2000/svg">
<g clip-path="url(#clip0_3010_29294)" filter="url(#filter0_d_3010_29294)">
<g clip-path="url(#clip1_3010_29294)">
<path fill-rule="evenodd" clip-rule="evenodd" d="M4.56596 0.698218C4.7243 0.540391 4.91239 0.415172 5.11948 0.329734C5.32657 0.244296 5.54857 0.200317 5.77278 0.200317C5.99698 0.200317 6.21899 0.244296 6.42607 0.329734C6.63316 0.415172 6.82126 0.540391 6.9796 0.698218L27.4341 21.0354C27.5929 21.1928 27.7188 21.3798 27.8048 21.5857C27.8907 21.7916 27.9349 22.0124 27.9349 22.2353C27.9349 22.4582 27.8907 22.6789 27.8048 22.8848C27.7188 23.0907 27.5929 23.2777 27.4341 23.4352L6.9796 43.7723C6.65953 44.0906 6.22542 44.2693 5.77278 44.2693C5.32013 44.2693 4.88603 44.0906 4.56596 43.7723C4.24589 43.4541 4.06608 43.0225 4.06608 42.5724C4.06608 42.1224 4.24589 41.6908 4.56596 41.3725L23.8171 22.2353L4.56596 3.098C4.40722 2.94057 4.28128 2.75356 4.19535 2.54766C4.10942 2.34176 4.06519 2.12103 4.06519 1.89811C4.06519 1.67519 4.10942 1.45446 4.19535 1.24856C4.28128 1.04267 4.40722 0.855647 4.56596 0.698218Z" fill="white"/>
</g>
</g>
<defs>
<filter id="filter0_d_3010_29294" x="0" y="0" width="32" height="52.4706" filterUnits="userSpaceOnUse" color-interpolation-filters="sRGB">
<feFlood flood-opacity="0" result="BackgroundImageFix"/>
<feColorMatrix in="SourceAlpha" type="matrix" values="0 0 0 0 0 0 0 0 0 0 0 0 0 0 0 0 0 0 127 0" result="hardAlpha"/>
<feOffset dy="4"/>
<feGaussianBlur stdDeviation="2"/>
<feComposite in2="hardAlpha" operator="out"/>
<feColorMatrix type="matrix" values="0 0 0 0 0 0 0 0 0 0 0 0 0 0 0 0 0 0 0.25 0"/>
<feBlend mode="normal" in2="BackgroundImageFix" result="effect1_dropShadow_3010_29294"/>
<feBlend mode="normal" in="SourceGraphic" in2="effect1_dropShadow_3010_29294" result="shape"/>
</filter>
<clipPath id="clip0_3010_29294">
<rect width="24" height="44.4706" fill="white" transform="translate(4)"/>
</clipPath>
<clipPath id="clip1_3010_29294">
<rect width="24" height="44.4706" fill="white" transform="translate(4)"/>
</clipPath>
</defs>
</svg>
